PathFileType	4	(X/Y/Z)	RBDS03\RBDS03runT25.trc																																																																																														
DataRate	CameraRate	NumFrames	NumMarkers	Units	OrigDataRate	OrigDataStartFrame	OrigNumFrames																																																																																										
150	150	9	32	mm	150	562	4500																																																																																										
Frame#	Time	L.ASIS			L.Heel.Bottom			L.Heel.Lateral			L.Heel.Top			L.Iliac.Crest			L.MT1			L.MT5			L.PSIS			L.Shank.Bottom.Lateral			L.Shank.Bottom.Medial			L.Shank.Top.Lateral			L.Shank.Top.Medial			L.Thigh.Bottom.Lateral			L.Thigh.Bottom.Medial			L.Thigh.Top.Lateral			L.Thigh.Top.Medial			R.ASIS			R.MT5			R.Heel.Bottom			R.Heel.Lateral			R.Heel.Top			R.Iliac.Crest			R.MT1			R.PSIS			R.Shank.Bottom.Lateral			R.Shank.Bottom.Medial			R.Shank.Top.Lateral			R.Shank.Top.Medial			R.Thigh.Bottom.Lateral			R.Thigh.Bottom.Medial			R.Thigh.Top.Lateral			R.Thigh.Top.Medial		
		X1	Y1	Z1	X2	Y2	Z2	X3	Y3	Z3	X4	Y4	Z4	X5	Y5	Z5	X6	Y6	Z6	X7	Y7	Z7	X8	Y8	Z8	X9	Y9	Z9	X10	Y10	Z10	X11	Y11	Z11	X12	Y12	Z12	X13	Y13	Z13	X14	Y14	Z14	X15	Y15	Z15	X16	Y16	Z16	X17	Y17	Z17	X18	Y18	Z18	X19	Y19	Z19	X20	Y20	Z20	X21	Y21	Z21	X22	Y22	Z22	X23	Y23	Z23	X24	Y24	Z24	X25	Y25	Z25	X26	Y26	Z26	X27	Y27	Z27	X28	Y28	Z28	X29	Y29	Z29	X30	Y30	Z30	X31	Y31	Z31	X32	Y32	Z32
																																																																																																	
563	3.746666667	2289.417137	1047.767967	919.888173	1684.49118	508.7187889	953.4753843	1682.898762	477.1223095	903.4590904	1731.474999	493.0046215	941.5606643	2227.527213	1120.059129	871.7438797	1689.985017	281.2132918	974.570822	1656.335085	322.9483168	878.1546706	2116.017042	1074.67642	972.0479942	1808.993853	454.3554618	880.5007251	1800.00846	488.0688945	922.807086	1883.091599	483.9233877	872.7409704	1874.721148	518.2889936	913.14382	2175.65593	598.7234259	872.979064	2119.376615	609.6410982	919.9118175	2182.412132	707.3138778	856.1486087	2124.412003	717.6639883	894.6866803	2274.526988	1061.133313	1132.573231	2393.996785	48.09312096	1131.61548	2207.702704	28.07403796	1047.977647	2240.096311	49.19056256	1097.015625	2213.764054	76.38320266	1050.302254	2211.198634	1136.343752	1168.580269	2418.589091	64.22484268	1018.257598	2110.7782	1080.487508	1056.1151	2263.757025	158.3520802	1113.819131	2227.826777	166.9570539	1077.325758	2256.433336	239.9813809	1136.011318	2220.901347	245.1771049	1096.093927	2279.039338	635.9580692	1170.131189	2216.001005	618.9786236	1137.614464	2240.899227	738.797829	1187.43956	2181.828199	722.0498928	1156.728197
564	3.753333333	2287.16241	1040.379431	919.7085867	1697.328616	514.7721206	954.7977981	1694.663177	484.4138807	903.9823022	1743.484498	496.7388773	942.9411247	2225.271267	1111.940007	871.131913	1690.449076	286.8450711	970.7348663	1660.40198	332.5584276	874.9271721	2113.681495	1067.015893	972.3813046	1817.750241	456.4715539	880.284721	1809.939646	490.0766058	922.8861626	1892.620103	483.9164751	872.384532	1885.484775	518.1263884	913.1809168	2183.765624	591.2206457	871.8519664	2127.007361	600.6781345	918.3514687	2188.067614	699.8959696	855.0224222	2129.506775	708.7615952	892.9645653	2272.661461	1054.695419	1132.137445	2379.554108	44.01487588	1130.6621	2191.919902	28.56769782	1047.454815	2225.207589	49.43187912	1096.010218	2199.827933	76.75980052	1048.88518	2210.009694	1128.423975	1168.960147	2404.590196	57.87586293	1017.16724	2108.523352	1073.227487	1056.22336	2254.780852	155.4426765	1111.90547	2218.59397	165.6602486	1076.201578	2250.883594	237.1210778	1134.73381	2214.917257	243.9889881	1095.510808	2282.207764	631.3064124	1170.56851	2219.212719	613.5857518	1138.300385	2242.743545	733.5611427	1188.433574	2183.927388	716.1325189	1157.720458
565	3.76	2284.602848	1032.956781	919.6202454	1710.818492	519.8039702	955.8811125	1707.280442	490.6182534	904.3381223	1756.115835	499.5257727	944.2066659	2222.67662	1103.546146	870.4968808	1691.951662	292.0634994	967.141002	1665.759217	341.2919857	871.8664205	2111.119315	1059.556802	972.7659575	1827.207032	457.9269266	880.063714	1820.445665	491.4865408	922.8473102	1902.752814	483.3618377	871.99581	1896.727245	517.4753602	913.0721972	2192.156934	584.1428514	870.8076807	2134.820288	592.0869055	916.6910272	2193.917999	692.8601811	853.9613142	2134.698067	700.1506747	891.1000806	2270.535281	1048.23996	1131.648458	2364.463039	41.18237404	1129.883935	2175.82793	29.48153144	1046.859525	2209.822107	50.23835781	1094.971141	2185.340352	77.55790219	1047.397633	2208.917351	1120.125616	1169.469076	2390.002073	52.94021996	1016.434105	2106.028139	1066.136765	1056.349989	2245.364156	153.4413536	1109.873415	2209.00378	165.3303422	1074.96208	2245.04206	235.0390677	1133.309679	2208.703321	243.6480662	1094.796672	2285.264843	626.9331208	1170.975437	2222.421445	608.4639322	1138.801542	2244.400339	728.5448061	1189.412347	2185.929178	710.4288105	1158.561721
566	3.766666667	2281.761527	1025.667235	919.6313561	1724.718574	523.864054	956.6743668	1720.506137	495.7198903	904.4967885	1769.166597	501.4729694	945.3063404	2219.73813	1095.061253	869.8727473	1694.618418	296.7725204	963.8747915	1672.352033	348.9577613	869.03183	2108.363749	1052.434249	973.1620119	1837.277251	458.7894593	879.8338711	1831.430931	492.3671693	922.7023588	1913.407746	482.3620518	871.5926565	1908.356075	516.4409541	912.8412004	2200.793401	577.6583335	869.8755758	2142.820458	584.0408641	915.0200308	2199.929344	686.371435	852.9989189	2139.997679	692.0052528	889.1934776	2268.178337	1041.894624	1131.160647	2348.880988	39.52194746	1129.261542	2159.595224	30.68457539	1046.237644	2194.108384	51.45874717	1093.961556	2170.425574	78.65177424	1045.939124	2207.843304	1111.605388	1170.100812	2374.922485	49.43683641	1016.030098	2103.326529	1059.325811	1056.45395	2235.496024	152.3161482	1107.851503	2199.053028	165.8859272	1073.706574	2238.823776	233.6994488	1131.837482	2202.191739	244.0653095	1094.022397	2288.020344	622.8300397	1171.298166	2225.429855	603.6473333	1139.053649	2245.755314	723.774474	1190.287096	2187.690794	705.0055165	1159.174426
567	3.773333333	2278.686374	1018.683534	919.7379336	1738.750787	527.0082398	957.1311087	1734.069872	499.7147164	904.4337787	1782.404722	502.7043005	946.1963788	2216.474894	1086.71422	869.2965273	1698.56683	300.8529837	961.0197559	1680.119031	355.3616024	866.4763347	2105.466085	1045.778511	973.5314866	1847.857919	459.1381791	879.5988409	1842.784894	492.7907323	922.4754587	1924.484637	481.035801	871.2010999	1920.261963	515.1365489	912.5262063	2209.627498	571.9185771	869.0712382	2151.005915	576.6992076	913.419551	2206.061712	680.5752788	852.1544705	2145.414417	684.4864031	887.3367847	2265.644766	1035.782675	1130.730841	2332.939722	38.8566765	1128.775549	2143.331433	32.04605128	1045.635697	2178.192115	52.92712814	1093.041253	2155.18176	79.91483141	1044.602776	2206.68185	1103.054657	1170.833458	2359.433657	47.24653406	1015.907186	2100.475428	1052.897566	1056.501038	2225.141194	151.9579269	1105.966976	2188.713371	167.172351	1072.531813	2232.114525	232.9983031	1130.419276	2195.28689	245.0866214	1093.259732	2290.267015	618.949574	1171.499803	2228.015088	599.1361952	1139.01641	2246.686373	719.2443774	1190.986439	2189.059383	699.9038341	1159.500558
568	3.78	2275.448245	1012.172139	919.9231143	1752.615376	529.2901766	957.21387	1747.690155	502.6069972	904.1326657	1795.579837	503.3462546	946.8450254	2212.932329	1078.763778	868.8020648	1703.892156	304.1710297	958.6528978	1688.993865	360.3191303	864.2454895	2102.49157	1039.707336	973.8429872	1858.832073	459.0546171	879.3704483	1854.384437	492.8270332	922.2005351	1935.86741	479.5062758	870.852234	1932.321515	513.6747637	912.175261	2218.603572	567.047986	868.3963318	2159.365069	570.1961056	911.9535179	2212.271425	675.5883937	851.4315109	2150.951971	677.7310949	885.605935	2263.006478	1030.015389	1130.408488	2316.743731	38.94555202	1128.408968	2127.092789	33.44628579	1045.095036	2162.157055	54.48253994	1092.258651	2139.681669	81.23010345	1043.462948	2205.3154	1094.686281	1171.629754	2343.604384	46.14870096	1016.004998	2097.549252	1046.944247	1056.469497	2214.251819	152.1999152	1104.32799	2177.940765	168.9845759	1071.518533	2224.788183	232.7819056	1129.146333	2187.878698	246.5150634	1092.571716	2291.79082	615.219214	1171.563514	2229.93898	594.9068444	1138.679993	2247.067228	714.9289519	1191.46274	2189.877939	695.1460014	1159.508875
569	3.786666667	2272.135079	1006.281761	920.1589441	1766.011074	530.7531399	956.8998757	1761.092635	504.4063935	903.5884602	1808.439456	503.5135619	947.2368305	2209.181804	1071.475712	868.4140999	1710.655435	306.589051	956.8391296	1698.906539	363.6707175	862.3766845	2099.513013	1034.319063	974.0752918	1870.073114	458.6134535	879.168452	1866.098586	492.5374263	921.9172529	1947.429105	477.8881785	870.5781669	1944.402461	512.1578962	911.8392489	2227.661073	563.1373766	867.8407402	2167.874527	564.6331261	910.6625666	2218.513337	671.4931621	850.8193267	2156.606649	671.8444758	884.0548812	2260.34371	1024.686872	1130.227107	2300.371211	39.52515458	1128.147376	2110.892337	34.78553494	1044.647045	2146.050149	55.98603545	1091.644976	2123.975496	82.49893375	1042.566769	2203.63592	1086.719019	1172.440647	2327.492618	45.86723305	1016.259112	2094.631402	1041.545149	1056.35339	2202.779949	152.8450521	1103.009923	2166.686289	171.0965904	1070.721112	2216.724974	232.8723301	1128.087067	2179.857262	248.1392236	1092.004641	2292.387132	611.5613791	1171.492087	2230.964866	590.9259751	1138.068082	2246.775838	710.7982794	1191.695077	2189.995411	690.7447383	1159.199727
570	3.793333333	2268.843088	1001.133936	920.4103603	1778.658792	531.4229657	956.1868799	1774.029699	505.1252392	902.8107424	1820.747954	503.2955195	947.3755054	2205.317328	1065.09554	868.1440005	1718.8753	307.9778305	955.625578	1709.784459	365.2965998	860.8984631	2096.603413	1029.687583	974.2191419	1881.451147	457.8735843	879.0192475	1877.795012	491.9695627	921.6659594	1959.038796	476.2750945	870.4077399	1956.370713	510.6690475	911.5640863	2236.737626	560.241847	867.3864415	2176.497686	560.0757657	909.5612091	2224.743034	668.3368045	850.2967858	2162.365309	666.8964433	882.7121661	2257.734801	1019.871649	1130.199118	2283.877232	40.34672687	1127.977723	2094.712852	35.99046168	1044.310301	2129.889638	57.33326324	1091.211735	2108.095423	83.64759642	1041.93099	2201.56843	1079.361267	1173.211786	2311.148354	46.11619193	1016.608519	2091.804471	1036.765369	1056.162708	2190.68869	153.6958177	1102.04812	2154.906533	173.2918313	1070.162336	2207.827626	233.0953371	1127.279374	2171.126398	249.7622891	1091.583132	2291.87995	607.914175	1171.304358	2230.878467	587.1658751	1137.236359	2245.706009	706.8335607	1191.688515	2189.27935	686.7129852	1158.606023
571	3.8	2265.66675	996.8169276	920.6404958	1790.325404	531.3029279	955.0979323	1786.298758	504.7761342	901.8258756	1832.305541	502.7448224	947.2848108	2201.449177	1059.821081	867.9881754	1728.524821	308.2282479	955.0368548	1721.553356	365.1296224	859.8299669	2093.829119	1025.859901	974.2768117	1892.84056	456.8708369	878.9535993	1889.347453	491.1533421	921.4824012	1970.569588	474.729101	870.3628315	1968.09822	509.2650262	911.3834829	2245.771555	558.3826995	867.012229	2185.184426	556.5541909	908.6386912	2230.918735	666.1346507	849.8377054	2168.204	662.9225175	881.5803093	2255.247424	1015.6248	1130.315113	2267.298252	41.20379224	1127.886779	2078.520167	37.01817519	1044.090167	2113.674531	58.46157802	1090.951839	2092.061074	84.63164357	1041.5443	2199.091548	1072.795834	1173.891779	2294.616235	46.6376772	1017.001262	2089.141253	1032.655432	1055.919983	2177.960372	154.5811863	1101.437761	2142.571858	175.3894266	1069.833956	2198.033154	233.3053935	1126.72848	2161.614104	251.2267463	1091.309209	2290.139744	604.2485991	1171.029476	2229.508781	583.6174037	1136.265917	2243.779234	703.0391674	1191.469913	2187.628432	683.0718231	1157.789385
